<?xml version="1.0" encoding="utf-8"?>
<!-- Generator: Adobe Illustrator 21.0.2, SVG Export Plug-In . SVG Version: 6.00 Build 0)  -->
<svg version="1.1" id="Layer_1" xmlns="http://www.w3.org/2000/svg" xmlns:xlink="http://www.w3.org/1999/xlink" x="0px" y="0px"
	 viewBox="0 0 30 30" style="enable-background:new 0 0 30 30;" xml:space="preserve">
<style type="text/css">
	.st0{fill:#FFFFFF;}
</style>
<g>
	<polygon class="st0" points="13.3,20.2 16.7,20.2 15,13.8 	"/>
	<g>
		<path class="st0" d="M15,4.2C9,4.2,4.2,9,4.2,15C4.2,21,9,25.8,15,25.8S25.8,21,25.8,15C25.8,9,21,4.2,15,4.2 M11.4,21.7L15,8.3
			l3.6,13.5H11.4z"/>
		<path class="st0" d="M15,0c8.3,0,15,6.7,15,15c0,8.3-6.7,15-15,15S0,23.3,0,15C0,6.7,6.7,0,15,0 M1.4,15c0,7.5,6.1,13.6,13.6,13.6
			c7.5,0,13.6-6.1,13.6-13.6S22.5,1.4,15,1.4C7.5,1.4,1.4,7.5,1.4,15"/>
	</g>
</g>
</svg>
